<?xml version="1.0" encoding="utf-8"?>
<!-- Generator: Adobe Illustrator 21.0.0, SVG Export Plug-In . SVG Version: 6.00 Build 0)  -->
<svg version="1.1" id="Layer_2" xmlns="http://www.w3.org/2000/svg" xmlns:xlink="http://www.w3.org/1999/xlink" x="0px" y="0px"
	 viewBox="0 0 320 816" enable-background="new 0 0 320 816" xml:space="preserve">
<g>
	<g>
		<g>
			<path fill="#ED1C24" d="M-128.2,433.7c-0.4,0.4-0.5,1.1-0.1,1.5c0.4,0.4,1.1,0.3,1.5-0.1l23.8-23.8c0.4-0.4,0.5-1.1,0.1-1.5
				s-1.1-0.3-1.5,0.1L-128.2,433.7z"/>
		</g>
		<g>
			<path fill="#ED1C24" d="M-128.3,409.8c-0.4,0.4-0.3,1.1,0.1,1.5l23.8,23.8c0.4,0.4,1.1,0.5,1.5,0.1c0.4-0.4,0.3-1.1-0.1-1.5
				l-23.8-23.8C-127.3,409.5-128,409.4-128.3,409.8z"/>
		</g>
	</g>
</g>
</svg>
